/* XPM */
static char * kcalc_xpm[] = {
"32 32 153 2",
"  	c None",
". 	c #020204",
"+ 	c #060604",
"@ 	c #0A0A0C",
"# 	c #0E0E0C",
"$ 	c #121214",
"% 	c #161614",
"& 	c #1A1A1C",
"* 	c #1E1E24",
"= 	c #262624",
"- 	c #2A2A2C",
"; 	c #2E2E2C",
"> 	c #323234",
", 	c #363634",
"' 	c #3A3A3C",
") 	c #3E3E44",
"! 	c #424244",
"~ 	c #4A4A4C",
"{ 	c #4E4E4C",
"] 	c #525254",
"^ 	c #565654",
"/ 	c #5A5A5C",
"( 	c #FFFFFD",
"_ 	c #B2B2EC",
": 	c #BABABC",
"< 	c #FEFEFC",
"[ 	c #8A8AB4",
"} 	c #D2D2CC",
"| 	c #8EFEFC",
"1 	c #7AF6F4",
"2 	c #72F2EC",
"3 	c #5EEAE4",
"4 	c #4EE2DC",
"5 	c #42DADC",
"6 	c #3AD6D4",
"7 	c #32D2D4",
"8 	c #26CECC",
"9 	c #1ECACC",
"0 	c #16C6C4",
"a 	c #0AC2C4",
"b 	c #02BEBC",
"c 	c #AAAAAC",
"d 	c #823A04",
"e 	c #A24604",
"f 	c #522614",
"g 	c #BEBEBC",
"h 	c #86FAF4",
"i 	c #069A94",
"j 	c #069694",
"k 	c #06928C",
"l 	c #024244",
"m 	c #B27644",
"n 	c #FEA244",
"o 	c #D66A04",
"p 	c #7A3604",
"q 	c #C2C2BC",
"r 	c #026664",
"s 	c #76769C",
"t 	c #BA864C",
"u 	c #FECEAC",
"v 	c #FE8204",
"w 	c #AE5604",
"x 	c #8686B4",
"y 	c #7AFE7C",
"z 	c #02C2C4",
"A 	c #86562C",
"B 	c #F6AA6C",
"C 	c #923E04",
"D 	c #6AEEEC",
"E 	c #068E8C",
"F 	c #AAAAA4",
"G 	c #BE8644",
"H 	c #464644",
"I 	c #028A84",
"J 	c #9292C4",
"K 	c #6E6E94",
"L 	c #AEAEEC",
"M 	c #DFDFDB",
"N 	c #823604",
"O 	c #FBFBF7",
"P 	c #C6CAC4",
"Q 	c #B2B2B4",
"R 	c #BEBEC4",
"S 	c #DDDDDB",
"T 	c #9E9E9C",
"U 	c #BA7E3C",
"V 	c #AEAEE4",
"W 	c #F8F8F7",
"X 	c #727274",
"Y 	c #028684",
"Z 	c #36363C",
"` 	c #727674",
" .	c #8E8E8C",
"..	c #8282AC",
"+.	c #AAAAE4",
"@.	c #028284",
"#.	c #A6A6A4",
"$.	c #CACACC",
"%.	c #F5F5F7",
"&.	c #F5F5F2",
"*.	c #CACAC4",
"=.	c #DADADB",
"-.	c #969694",
";.	c #B6824C",
">.	c #B6B6B4",
",.	c #F3F3F2",
"'.	c #027E7C",
").	c #767674",
"!.	c #72729C",
"~.	c #8E8EBC",
"{.	c #8A8ABC",
"].	c #6A6A8C",
"^.	c #C28A44",
"/.	c #9E623C",
"(.	c #A2A2A4",
"_.	c #D7D7D5",
":.	c #C2C2C4",
"<.	c #727294",
"[.	c #EAC6AC",
"}.	c #CA8264",
"|.	c #AA6E54",
"1.	c #F0F0F2",
"2.	c #1E1E1C",
"3.	c #FEC2C4",
"4.	c #E6AEAC",
"5.	c #D2A6A4",
"6.	c #D29E9C",
"7.	c #D7DAD5",
"8.	c #FEE2D4",
"9.	c #FACEB4",
"0.	c #E69E7C",
"a.	c #FE0204",
"b.	c #FE6E6C",
"c.	c #562224",
"d.	c #C6C6C4",
"e.	c #B69284",
"f.	c #5A564C",
"g.	c #EDEDF2",
"h.	c #FE9294",
"i.	c #A6A6DC",
"j.	c #827A64",
"k.	c #A2A2D4",
"l.	c #A2A2DC",
"m.	c #EDEDEC",
"n.	c #EAEAEC",
"o.	c #D4D4D5",
"p.	c #9E9ED4",
"q.	c #E8E8EC",
"r.	c #D1D1D5",
"s.	c #D1D1D0",
"t.	c #E8E8E6",
"u.	c #E5E5E6",
"v.	c #9A9AD4",
"                . + @ # $ % & * = - ; > , ' ) ! ~ { ] ^ /       ",
"                . ( ( ( _ ( ( ( _ ( ( ( _ ( ( ( _ ( : / < /     ",
"                . ( ( ( _ ( ( ( _ ( ( ( _ ( ( ( _ ( : / < < /   ",
"                . _ _ _ _ _ _ _ _ _ _ _ _ _ _ _ _ _ [ / < < < / ",
"  . . . . . . . . . + + . + . . . } ( ( _ ( ( ( _ ( : / / / / / ",
". | 1 1 2 3 3 4 4 5 6 7 8 9 0 a b . c } d e f g _ ( ( : [ : : / ",
". h i j j j j i j j i i j j j k l . c m n o p q _ ( ( ( _ ( ( ^ ",
". 1 i l l l l l l l l l l l r k l . s t u v w f x _ _ _ _ _ _ ] ",
". 2 j l . . . y . y . y y . z k l . c A B n o C x ( ( ( _ ( ( { ",
". D j l . . . . y y . . y . b E l . F q G u v w f g ( ( _ ( ( ~ ",
". 3 i l . . . . . y . y y . z E l . c } A B n o p g ( ( _ ( ( H ",
". 4 j r b b b b b b b b b b b I l . s J K t u v w f x _ _ L L ! ",
". 4 i j j j j j k k k k E E E I l . c M s A B n o N g ( _ O O ) ",
". 5 i P g Q Q P R Q Q P g Q Q I l . c S J T U u v w f : V W W ' ",
". 6 j g ^ X H g ^ X H g ^ X H Y l . c M J F A B n o d : L W W Z ",
". 7 j Q `  .> Q `  .> Q `  .> Y l . s J _ J K U u v w f ..+.+.> ",
". 8 k H > . . H > . . H > . . @.l . #.S _ $.#.A B n o d ..%.&.; ",
". 9 k *.g Q Q $.g Q Q $.g Q Q @.l . c =.V O $.-.;.u v w f >.,.- ",
". 0 E g ^ X H g ^ X H g ^ X H '.l . F S L O *.#.A B n o C >.,.= ",
". a E Q `  .> Q ). .> Q ). .> '.l . !.~.V +.+.{.].^.u v w /.+.= ",
". b E H > . . H > . . H > . . '.l . (._.V W %.:.<.A B [.}.|.1.2.",
". b I *.g Q Q *.g Q Q 3.4.5.6.'.l . #.7.+.%.&.&.{.-.8.9.0.}.1.2.",
". b I g ^ X H g ^ X H 4.a.b.c.'.l . (._.+.,.,.,.+.d.#.e.. f.g.% ",
". b Y Q ). .> Q ). .> 5.b.h.. '.l . <.{.i.+.i.+.i.i.[ !.j.. k.% ",
". b Y H > . . H > . . c.. . . '.l . T _.i.,.1.1.l.1.m.m.k.m.n.# ",
". b @.@.@.'.'.'.'.'.'.'.'.'.'.'.l . (.o.i.1.1.m.i.m.g.g.p.n.n.# ",
". l l l l l l l l l l l l l l l l . T o.i.1.1.m.l.m.n.m.p.n.q.+ ",
"  . . . . . . . . . . . . . . . . K x l.l.k.k.l.k.p.k.p.k.p.p.+ ",
"                . T T (.K T T T K r.s.1.l.g.m.n.l.n.n.q.p.t.u.. ",
"                . _.o.o.[ o.r.r.x m.1.m.k.n.n.n.p.q.t.q.v.u.t.. ",
"                . ,.,.1.i.1.1.m.i.m.n.m.k.n.n.n.p.q.t.t.p.u.u.. ",
"                . . . . . . . . . . . . . . . . . . . . . . . . "};
