/* XPM */
/* Drawn  by Nico Schwiring for the K Desktop Environment */
/* See http://www.kde.org */
static char*kcalc[]={
"32 32 17 1",
"# c #000000",
"c c #c0c0c0",
"a c #ffffff",
"d c #808080",
"l c #585858",
"o c #800000",
"h c #008080",
"e c #00c0c0",
"n c #ff0000",
"k c #00ff00",
"m c #ffbebe",
"b c #bebeff",
"g c #ffffbe",
"f c #be5800",
"j c #ffdca8",
"i c #004040",
". c None",
".......####################.....",
".......#aaabaaabaaabaaabaa##....",
".......#aaabaaabaaabaaabaa#a#...",
".......#bbbbbbbbbbbbbbbbbb#ab#..",
".################acd###baa#baa#.",
"#eeeeeeeeeeeeeeee##fgg#daa######",
"#ehhhhhhhhhhhhhhi##fjjg#aaadddd#",
"#ehiiiiiiiiiiiihi#d#fjg#dbbbccb#",
"#ehi#k#kk#k###ehi#d#fjjg#aabaaa#",
"#ehi#k#k###k##ehi#dd#fjg#dabaaa#",
"#ehi#k##k#kk##ehi#dd#fjjg#abaaa#",
"#eheeeeeeeeeeeehi#hbd#fjg#dbbbb#",
"#ehhhhhhhhhhhhhhi#dcd#fjjg#baaa#",
"#ehcccccccccccchi#dccd#fjg#daaa#",
"#ehcll#cll#cll#hi#dccd#fjjg#aaa#",
"#ehcll#cll#cll#hi#hbbbd#fjg#dbb#",
"#eh############hi#dcacd#fjjg#aa#",
"#ehcccccccccccchi#dcaacd#fjg#da#",
"#ehcll#cll#cll#hi#dcaacd#fjjg#a#",
"#ehcll#cll#cll#hi#hbbbbbd#fjg#c#",
"#eh############hi#dcaaabd#fjjg##",
"#ehccccccccmmmmhi#dcaaabcd#fga##",
"#ehcll#cll#mnn#hi#dcaaabcd#fjao#",
"#ehcll#cll#mnn#hi#hbbbbbbbd##oo#",
"#eh############hi#dcaaabaccdd###",
"#ihhhhhhhhhhhhhhi#dcaaabaacbcdd#",
"#iiiiiiiiiiiiiiii#dcaaabaaabccc#",
".################hhbbbbbbbbbbbb#",
".......#dddhdddhddcbaaabaaabaaa#",
".......#cccbcccbcccbaaabaaabaaa#",
".......#aaabaaabaaabaaabaaabaaa#",
".......#########################"};

