/* XPM */
static char * large_kcalc_xpm[] = {
"48 48 189 2",
"  	c None",
". 	c #020204",
"+ 	c #222224",
"@ 	c #323234",
"# 	c #464644",
"$ 	c #464234",
"% 	c #5A5A5C",
"& 	c #FEFEFC",
"* 	c #BEBEFC",
"= 	c #C2C2FC",
"- 	c #FAFAFC",
"; 	c #BABAF4",
"> 	c #F6F6F4",
", 	c #BABABC",
"' 	c #5E5E5C",
") 	c #FAFAF4",
"! 	c #BABAFC",
"~ 	c #B6B6EC",
"{ 	c #8EFEFC",
"] 	c #86FAF4",
"^ 	c #7EF6F4",
"/ 	c #72F2EC",
"( 	c #6AEEEC",
"_ 	c #62EAE4",
": 	c #5EEAE4",
"< 	c #56E6E4",
"[ 	c #4EE2DC",
"} 	c #46DEDC",
"| 	c #3EDADC",
"1 	c #32D6D4",
"2 	c #2ED6D4",
"3 	c #22CECC",
"4 	c #1ECECC",
"5 	c #16CACC",
"6 	c #0EC6C4",
"7 	c #06C2C4",
"8 	c #02BEBC",
"9 	c #026664",
"0 	c #929294",
"a 	c #B6B6F4",
"b 	c #069A94",
"c 	c #069694",
"d 	c #06968C",
"e 	c #02928C",
"f 	c #023E3C",
"g 	c #76769C",
"h 	c #9696CC",
"i 	c #AEAEE4",
"j 	c #763604",
"k 	c #420204",
"l 	c #B2B2EC",
"m 	c #8A8ABC",
"n 	c #666684",
"o 	c #6A6A8C",
"p 	c #626264",
"q 	c #82FAF4",
"r 	c #AEAEAC",
"s 	c #C6C6C4",
"t 	c #EAEAEC",
"u 	c #B2763C",
"v 	c #AA4E04",
"w 	c #BEBEBC",
"x 	c #F2F2F4",
"y 	c #8A8AB4",
"z 	c #76F6EC",
"A 	c #024244",
"B 	c #06928C",
"C 	c #FA7E04",
"D 	c #B25204",
"E 	c #8A3E04",
"F 	c #EEEEEC",
"G 	c #02C2C4",
"H 	c #FEAA5C",
"I 	c #FACEB4",
"J 	c #FE7E04",
"K 	c #AAAAE4",
"L 	c #7AFE7C",
"M 	c #028E8C",
"N 	c #B2B2B4",
"O 	c #7A7A7C",
"P 	c #FAE2C4",
"Q 	c #8E8E8C",
"R 	c #86562C",
"S 	c #FED2BC",
"T 	c #66EEEC",
"U 	c #6E6E94",
"V 	c #8686B4",
"W 	c #62627C",
"X 	c #FEDEAC",
"Y 	c #A6A6DC",
"Z 	c #A2A2DC",
"` 	c #4E4E4C",
" .	c #8A8A8C",
"..	c #5AEAE4",
"+.	c #B6B6B4",
"@.	c #5E5E7C",
"#.	c #C2C2C4",
"$.	c #66668C",
"%.	c #EAEAE4",
"&.	c #C2BEBC",
"*.	c #8282AC",
"=.	c #4AE2DC",
"-.	c #028A84",
";.	c #7E7EAC",
">.	c #868684",
",.	c #AAAAAC",
"'.	c #E6E6E4",
").	c #CACACC",
"!.	c #CECECC",
"~.	c #028A8C",
"{.	c #9E9ED4",
"].	c #8E8EBC",
"^.	c #A2A2D4",
"/.	c #565654",
"(.	c #666664",
"_.	c #727274",
":.	c #4A4A4C",
"<.	c #767674",
"[.	c #D6D6D4",
"}.	c #3A3A3C",
"|.	c #36DAD4",
"1.	c #828284",
"2.	c #82827C",
"3.	c #7E7E7C",
"4.	c #9A9ACC",
"5.	c #A2A2A4",
"6.	c #A6A6A4",
"7.	c #E2E2E4",
"8.	c #363634",
"9.	c #0E0E0C",
"0.	c #B2B2AC",
"a.	c #D2D2D4",
"b.	c #028684",
"c.	c #7A7AA4",
"d.	c #26D2CC",
"e.	c #9292C4",
"f.	c #525254",
"g.	c #F67A04",
"h.	c #9E9E9C",
"i.	c #EE9A54",
"j.	c #F67604",
"k.	c #F27604",
"l.	c #028284",
"m.	c #9A9A9C",
"n.	c #56566C",
"o.	c #EA6E04",
"p.	c #C65A04",
"q.	c #8A3A04",
"r.	c #5A5A7C",
"s.	c #EEAE7C",
"t.	c #B66244",
"u.	c #9E623C",
"v.	c #FEC2C4",
"w.	c #EAB2B4",
"x.	c #E6AEAC",
"y.	c #D2A6A4",
"z.	c #D29E9C",
"A.	c #72729C",
"B.	c #F6C2A4",
"C.	c #EEC6AC",
"D.	c #D28A6C",
"E.	c #C6765C",
"F.	c #A6664C",
"G.	c #262624",
"H.	c #FE0204",
"I.	c #FE2624",
"J.	c #FE4A4C",
"K.	c #562224",
"L.	c #FEE2D4",
"M.	c #CE9A84",
"N.	c #BA7E54",
"O.	c #AA6E54",
"P.	c #FE6E6C",
"Q.	c #2E0204",
"R.	c #EAAE9C",
"S.	c #B27254",
"T.	c #FE9294",
"U.	c #2A0204",
"V.	c #9E9ECC",
"W.	c #DEDEDC",
"X.	c #B69284",
"Y.	c #DADADC",
"Z.	c #027E7C",
"`.	c #827A64",
" +	c #9696C4",
".+	c #9292BC",
"++	c #020604",
"@+	c #626284",
"#+	c #DADAD4",
"                                                                                                ",
"                                                                                                ",
"                                                                                                ",
"                        . . . . . + + + + + + @ @ @ @ # $ $ # $ $ % % % % % % % % %             ",
"                        . & & & & * & & & & & = & & & & & * & & & - - ; - - > , ' - %           ",
"                        . & & & & = & & & & & * & & & & & * & - - - - ; ) ) ) , % & & %         ",
"                        . & & & & = & & & & & = & & & & & ! & - - ) - ~ > - > , ' & & - %       ",
"      . . . . . . . . . . . . . . . . . . . . . & & & & - * - - ) - ) ! > > > , % - & & & '     ",
"    . { { ] ^ / ( _ : < [ } | 1 2 3 4 5 6 7 8 9 . 0 & & - ; - - - > > a > > > , ' % ' % % '     ",
"    . ] b b b b b b b b c c b b d c c d c d e f . g h h i ! h j k a a ~ a l l l m n n o o p     ",
"    . q b b b b b b c b b d d c b d c e e c e f . 0 r s t u j v j w > l > > x x x y , , , '     ",
"    . z b b A A A A A A A A A A A A A A 9 e B f . 0 r s j C C D E k , l > x x x x i F F F %     ",
"    . / b b f . . . . . . . . . . . . . G c e f . 0 r u H I J C v j , l x x x x F K F x F '     ",
"    . / b b A . . . . . L . L . L L . . G e M f . 0 N O u P J J D E k y x x x x x i F F F %     ",
"    . ( b b f . . . . . L . L . . . L . G e M f . 0 N Q R H S J J v j y x x F x F K F F F #     ",
"    . T d d A . . . . . . L L . . L . . G B e f . U V V W u X J C D E k V K K K K K K Y Z `     ",
"    . : b b f . . . . . . . L . L L L . G M M f . 0 N r  .R H S J J v j N x F F F Y F t t $     ",
"    . ..d d A . . . . . . . . . . . . . G M M f . 0 +.s r @.u X J C D E k r F F F K t F t `     ",
"    . < c e 9 G G G G G G G G G G G G G 7 M M f . 0 +.#.r $.R H I J J v j r F F t Y t t %.`     ",
"    . [ e c d d e e e e M M M e e M M M M M M f . 0 +.w &.*.O u X J J D E k r t t Z t %.t `     ",
"    . =.d e e e B B e B e e M M e M M M -.-.M f . 0 +.w w ;.>.R H S J J v j ,.t F Y t '.'.$     ",
"    . } e c ).s w N w !.#., N &.).#., N w ~.-.f . U V {.{.].;.@.u X J J D E k *.Z ^.Z Z Z `     ",
"    . | e e #./.(._.# #./.(._.:.#./.p <.:.-.-.f . 0 , [.!.].,.>.R H S J J v j ,.'.{.'.'.'.}.    ",
"    . |.B e , (._.1.@ w (._.2.@ , (.<.3.@ ~.~.f . 0 , [.[.4.+.5.O u X J J D E k 6.Z '.'.7.8.    ",
"    . 1 B e N _.3.Q 9.N <.3.Q 9.0._.2.Q 9.-.-.f . 0 +.a.a.4.+.5.1.R H S J J v j 6.^.'.'.7.8.    ",
"    . 2 M M # @ . . . :.@ . . . :.@ . . . b.b.f . 0 , a.%.K ).+.5.O u X J C D E k c.7.'.'.}.    ",
"    . d.B B !.#.w N w ).#., 0.&.).#., 0.w b.b.f . 0 +.!.'.Y s +.5.3.R H I J C v j c.7.7.7.}.    ",
"    . 3 M M #.% p _.# #.% (.<.# s /.(._.:.~.b.f . o V 4.4.Y Y e.V g f.u X J g.D E k c.4.h 8.    ",
"    . 4 M M , (._.2.@ , (._.1.@ , (.<.3.@ b.b.f . Q +.!.%.Z %.#.N h.3.R i.S j.k.D j h.[.a.8.    ",
"    . 5 -.-.0._.2.Q 9.0._.3.Q 9.N _.3.Q 9.b.l.f . Q N ).'.Y '.%.#.r m.n.u X k.o.p.q.k !.a.+     ",
"    . 5 M ~.:.@ . . . :.@ . . . :.@ . . . b.l.f . Q +.).t Z '.'.#.r m.r.R H s.o.p.t.u.!.!.+     ",
"    . 7 -.M !.#., N w ).s , 0.&.v.w.x.y.z.l.l.f . Q N ).%.^.t '.7., ,.A.O u B.C.D.E.F.a.!.G.    ",
"    . G -.-.#./.(._.:.#./.p _.# w.H.I.J.K.b.l.f .  .N s t {.'.'.'.w r A.<.R L.I M.N.O.!.).+     ",
"    . G ~.-., (._.2.@ , (.<.2.@ x.I.J.P.Q.l.l.f . n *.e.e.{.{.{.4.4.4.;.A.r.n.L.R.D.S.e.e.G.    ",
"    . 8 b.-.N <.3.Q 9.N _.3.Q 9.z.J.P.T.U.l.l.f .  .N s 7.V.7.'.7.W.7.y 6.0 <._.X.. $ W.Y.+     ",
"    . 8 -.-.:.@ . . . :.@ . . . K.. . . . Z.l.f .  .r s 7.4.7.7.'.'.7.h N 6.0 <._.`.. Y.W.G.    ",
"    . 8 b.b.b.b.b.b.b.l.b.b.l.l.l.Z.l.Z.l.Z.Z.f .  .r s 7.4.7.W.W.7.7. +W.N 5.5.Y.e.W.[.Y.+     ",
"    . 8 b.b.b.b.b.l.l.b.l.l.l.l.Z.l.Z.l.Z.Z.Z.f . >.r #.W.4.7.7.7.W.W. +W.Y.W.W.W..+Y.W.Y..     ",
"    . 9 f f f f f f f f f f f f f f f f f f f f . >.r #.7.4.7.W.7.W.W.h W.Y.Y.Y.Y.].Y.Y.Y..     ",
"      . . ++++++++++++++++++++++++++++. . . . . @+V m ].].h  + +h e. +e.e..+.+.+.+.+].]..+.     ",
"                        .  . . . .@+ . . . . .@+>.,.&.7.W.4.7.W.W.Y.W..+Y.Y.Y.Y.Y.e.W.#+Y..     ",
"                        . N N N N *.r r r r ,.;.,.#.w 7.7.e.W.W.W.W.W.].W.Y.Y.#+Y.].Y.Y.W..     ",
"                        . ).).s s e.s s #.s #.m #.s W.7.7.e.Y.W.Y.Y.Y.].Y.Y.Y.Y.Y.].W.[.Y..     ",
"                        . %.'.'.'.4.'.7.'.7.7.4.W.7.W.W.Y.h W.W.Y.Y.W.e.Y.Y.Y.Y.Y.e.Y.W.W..     ",
"                        9.'.'.7.'.4.'.7.7.W.7.4.W.W.W.W.Y.e.Y.W.Y.Y.[..+Y.W.Y.W.Y.].Y.[.Y..     ",
"                        . . . . . . . . . . . . . . . . . . . . . . . . . . . . . . . . . .     ",
"                                                                                                ",
"                                                                                                "};
