/* XPM */
static char * large_kcalc_xpm[] = {
"48 48 197 2",
"  	c None",
". 	c #020204",
"+ 	c #222224",
"@ 	c #323234",
"# 	c #464644",
"$ 	c #464234",
"% 	c #5A5A5C",
"& 	c #FFFFFE",
"* 	c #BEBEFC",
"= 	c #C2C2FC",
"- 	c #FCFCFE",
"; 	c #BABAF4",
"> 	c #FAFAF8",
", 	c #BABABC",
"' 	c #5E5E5C",
") 	c #FAFAFC",
"! 	c #FCFCF8",
"~ 	c #FEFEFC",
"{ 	c #BABAFC",
"] 	c #B6B6EC",
"^ 	c #8EFEFC",
"/ 	c #86FAF4",
"( 	c #7EF6F4",
"_ 	c #72F2EC",
": 	c #6AEEEC",
"< 	c #62EAE4",
"[ 	c #5EEAE4",
"} 	c #56E6E4",
"| 	c #4EE2DC",
"1 	c #46DEDC",
"2 	c #3EDADC",
"3 	c #32D6D4",
"4 	c #2ED6D4",
"5 	c #22CECC",
"6 	c #1ECECC",
"7 	c #16CACC",
"8 	c #0EC6C4",
"9 	c #06C2C4",
"0 	c #02BEBC",
"a 	c #026664",
"b 	c #929294",
"c 	c #B6B6F4",
"d 	c #069A94",
"e 	c #069694",
"f 	c #06968C",
"g 	c #02928C",
"h 	c #023E3C",
"i 	c #76769C",
"j 	c #9696CC",
"k 	c #AEAEE4",
"l 	c #763604",
"m 	c #420204",
"n 	c #B2B2EC",
"o 	c #8A8ABC",
"p 	c #666684",
"q 	c #6A6A8C",
"r 	c #626264",
"s 	c #82FAF4",
"t 	c #AEAEAC",
"u 	c #C6C6C4",
"v 	c #EAEAEC",
"w 	c #B2763C",
"x 	c #AA4E04",
"y 	c #BEBEBC",
"z 	c #F7F7F8",
"A 	c #8A8AB4",
"B 	c #76F6EC",
"C 	c #024244",
"D 	c #06928C",
"E 	c #FA7E04",
"F 	c #B25204",
"G 	c #8A3E04",
"H 	c #F5F5F4",
"I 	c #02C2C4",
"J 	c #FEAA5C",
"K 	c #FACEB4",
"L 	c #FE7E04",
"M 	c #AAAAE4",
"N 	c #7AFE7C",
"O 	c #028E8C",
"P 	c #B2B2B4",
"Q 	c #7A7A7C",
"R 	c #FAE2C4",
"S 	c #8E8E8C",
"T 	c #86562C",
"U 	c #FED2BC",
"V 	c #66EEEC",
"W 	c #6E6E94",
"X 	c #8686B4",
"Y 	c #62627C",
"Z 	c #FEDEAC",
"` 	c #A6A6DC",
" .	c #A2A2DC",
"..	c #4E4E4C",
"+.	c #8A8A8C",
"@.	c #F3F3F4",
"#.	c #5AEAE4",
"$.	c #B6B6B4",
"%.	c #5E5E7C",
"&.	c #C2C2C4",
"*.	c #66668C",
"=.	c #F3F3EF",
"-.	c #C2BEBC",
";.	c #8282AC",
">.	c #4AE2DC",
",.	c #028A84",
"'.	c #7E7EAC",
").	c #868684",
"!.	c #AAAAAC",
"~.	c #F0F0EF",
"{.	c #CACACC",
"].	c #CECECC",
"^.	c #028A8C",
"/.	c #9E9ED4",
"(.	c #8E8EBC",
"_.	c #A2A2D4",
":.	c #565654",
"<.	c #666664",
"[.	c #727274",
"}.	c #4A4A4C",
"|.	c #767674",
"1.	c #D6D6D4",
"2.	c #E6E6E4",
"3.	c #3A3A3C",
"4.	c #36DAD4",
"5.	c #828284",
"6.	c #82827C",
"7.	c #7E7E7C",
"8.	c #9A9ACC",
"9.	c #A2A2A4",
"0.	c #A6A6A4",
"a.	c #EEEEEF",
"b.	c #363634",
"c.	c #0E0E0C",
"d.	c #B2B2AC",
"e.	c #D2D2D4",
"f.	c #028684",
"g.	c #7A7AA4",
"h.	c #26D2CC",
"i.	c #9292C4",
"j.	c #525254",
"k.	c #F67A04",
"l.	c #9E9E9C",
"m.	c #EE9A54",
"n.	c #F67604",
"o.	c #F27604",
"p.	c #E7E7E5",
"q.	c #E5E5E5",
"r.	c #028284",
"s.	c #9A9A9C",
"t.	c #56566C",
"u.	c #EA6E04",
"v.	c #C65A04",
"w.	c #8A3A04",
"x.	c #E2E2E1",
"y.	c #5A5A7C",
"z.	c #EEAE7C",
"A.	c #B66244",
"B.	c #9E623C",
"C.	c #FEC2C4",
"D.	c #EAB2B4",
"E.	c #E6AEAC",
"F.	c #D2A6A4",
"G.	c #D29E9C",
"H.	c #72729C",
"I.	c #F6C2A4",
"J.	c #EEC6AC",
"K.	c #D28A6C",
"L.	c #C6765C",
"M.	c #A6664C",
"N.	c #262624",
"O.	c #FE0204",
"P.	c #FE2624",
"Q.	c #FE4A4C",
"R.	c #562224",
"S.	c #FEE2D4",
"T.	c #CE9A84",
"U.	c #BA7E54",
"V.	c #AA6E54",
"W.	c #DFDFE1",
"X.	c #FE6E6C",
"Y.	c #2E0204",
"Z.	c #EAAE9C",
"`.	c #B27254",
" +	c #FE9294",
".+	c #2A0204",
"++	c #9E9ECC",
"@+	c #EBEBEA",
"#+	c #B69284",
"$+	c #E9E9EA",
"%+	c #027E7C",
"&+	c #827A64",
"*+	c #9696C4",
"=+	c #9292BC",
"-+	c #020604",
";+	c #626284",
">+	c #E9E9E5",
"                                                                                                ",
"                                                                                                ",
"                                                                                                ",
"                        . . . . . + + + + + + @ @ @ @ # $ $ # $ $ % % % % % % % % %             ",
"                        . & & & & * & & & & & = & & & & & * & & & - - ; - - > , ' ) %           ",
"                        . & & & & = & & & & & * & & & & & * & - - - - ; ! ! ! , % ~ ~ %         ",
"                        . & & & & = & & & & & = & & & & & { & - - ! - ] > - > , ' ~ ~ ) %       ",
"      . . . . . . . . . . . . . . . . . . . . . & & & & - * - - ! - ! { > > > , % ) ~ ~ ~ '     ",
"    . ^ ^ / ( _ : < [ } | 1 2 3 4 5 6 7 8 9 0 a . b & & - ; - - - > > c > > > , ' % ' % % '     ",
"    . / d d d d d d d d e e d d f e e f e f g h . i j j k { j l m c c ] c n n n o p p q q r     ",
"    . s d d d d d d e d d f f e d f e g g e g h . b t u v w l x l y > n > > z z z A , , , '     ",
"    . B d d C C C C C C C C C C C C C C a g D h . b t u l E E F G m , n > z z z z k H H H %     ",
"    . _ d d h . . . . . . . . . . . . . I e g h . b t w J K L E x l , n z z z z H M H z H '     ",
"    . _ d d C . . . . . N . N . N N . . I g O h . b P Q w R L L F G m A z z z z z k H H H %     ",
"    . : d d h . . . . . N . N . . . N . I g O h . b P S T J U L L x l A z z H z H M H H H #     ",
"    . V f f C . . . . . . N N . . N . . I D g h . W X X Y w Z L E F G m X M M M M M M `  ...    ",
"    . [ d d h . . . . . . . N . N N N . I O O h . b P t +.T J U L L x l P z H H H ` H @.@.$     ",
"    . #.f f C . . . . . . . . . . . . . I O O h . b $.u t %.w Z L E F G m t H H H M @.H @...    ",
"    . } e g a I I I I I I I I I I I I I 9 O O h . b $.&.t *.T J K L L x l t H H @.` @.@.=...    ",
"    . | g e f f g g g g O O O g g O O O O O O h . b $.y -.;.Q w Z L L F G m t @.@. .@.=.@...    ",
"    . >.f g g g D D g D g g O O g O O O ,.,.O h . b $.y y '.).T J U L L x l !.@.H ` @.~.~.$     ",
"    . 1 g e {.u y P y ].&., P -.{.&., P y ^.,.h . W X /./.(.'.%.w Z L L F G m ;. ._. . . ...    ",
"    . 2 g g &.:.<.[.# &.:.<.[.}.&.:.r |.}.,.,.h . b , 1.].(.!.).T J U L L x l !.2./.~.~.~.3.    ",
"    . 4.D g , <.[.5.@ y <.[.6.@ , <.|.7.@ ^.^.h . b , 1.1.8.$.9.Q w Z L L F G m 0. .~.~.a.b.    ",
"    . 3 D g P [.7.S c.P |.7.S c.d.[.6.S c.,.,.h . b $.e.e.8.$.9.5.T J U L L x l 0._.~.~.a.b.    ",
"    . 4 O O # @ . . . }.@ . . . }.@ . . . f.f.h . b , e.=.M {.$.9.Q w Z L E F G m g.a.~.~.3.    ",
"    . h.D D ].&.y P y {.&., d.-.{.&., d.y f.f.h . b $.].~.` u $.9.7.T J K L E x l g.a.a.a.3.    ",
"    . 5 O O &.% r [.# &.% <.|.# u :.<.[.}.^.f.h . q X 8.8.` ` i.X i j.w Z L k.F G m g.8.j b.    ",
"    . 6 O O , <.[.6.@ , <.[.5.@ , <.|.7.@ f.f.h . S $.].=. .=.&.P l.7.T m.U n.o.F l l.p.q.b.    ",
"    . 7 ,.,.d.[.6.S c.d.[.7.S c.P [.7.S c.f.r.h . S P {.~.` ~.=.&.t s.t.w Z o.u.v.w.m x.q.+     ",
"    . 7 O ^.}.@ . . . }.@ . . . }.@ . . . f.r.h . S $.{.@. .~.~.&.t s.y.T J z.u.v.A.B.x.x.+     ",
"    . 9 ,.O ].&., P y {.u , d.-.C.D.E.F.G.r.r.h . S P {.=._.@.~.a., !.H.Q w I.J.K.L.M.q.x.N.    ",
"    . I ,.,.&.:.<.[.}.&.:.r [.# D.O.P.Q.R.f.r.h . +.P u @./.~.~.~.y t H.|.T S.K T.U.V.x.W.+     ",
"    . I ^.,., <.[.6.@ , <.|.6.@ E.P.Q.X.Y.r.r.h . p ;.i.i./././.8.8.8.'.H.y.t.S.Z.K.`.i.i.N.    ",
"    . 0 f.,.P |.7.S c.P [.7.S c.G.Q.X. +.+r.r.h . +.P u a.++a.~.a.@+a.A 0.b |.[.#+. $ @+$++     ",
"    . 0 ,.,.}.@ . . . }.@ . . . R.. . . . %+r.h . +.t u a.8.a.a.~.~.a.j P 0.b |.[.&+. $+@+N.    ",
"    . 0 f.f.f.f.f.f.f.r.f.f.r.r.r.%+r.%+r.%+%+h . +.t u a.8.a.@+@+a.a.*+@+P 9.9.$+i.@+p.$++     ",
"    . 0 f.f.f.f.f.r.r.f.r.r.r.r.%+r.%+r.%+%+%+h . ).t &.@+8.a.a.a.@+@+*+@+$+@+@+@+=+$+@+$+.     ",
"    . a h h h h h h h h h h h h h h h h h h h h . ).t &.a.8.a.@+a.@+@+j @+$+$+$+$+(.$+$+$+.     ",
"      . . -+-+-+-+-+-+-+-+-+-+-+-+-+-+. . . . . ;+X o (.(.j *+*+j i.*+i.i.=+=+=+=+=+(.(.=+.     ",
"                        . +.+.+.+.;++.+.+.+.+.;+).!.-.a.@+8.a.@+@+$+@+=+$+$+$+$+$+i.@+>+$+.     ",
"                        . P P P P ;.t t t t !.'.!.&.y a.a.i.@+@+@+@+@+(.@+$+$+>+$+(.$+$+@+.     ",
"                        . {.{.u u i.u u &.u &.o &.u @+a.a.i.$+@+$+$+$+(.$+$+$+$+$+(.@+p.$+.     ",
"                        . =.~.~.~.8.~.a.~.a.a.8.@+a.@+@+$+j @+@+$+$+@+i.$+$+$+$+$+i.$+@+@+.     ",
"                        c.~.~.a.~.8.~.a.a.@+a.8.@+@+@+@+$+i.$+@+$+$+p.=+$+@+$+@+$+(.$+p.$+.     ",
"                        . . . . . . . . . . . . . . . . . . . . . . . . . . . . . . . . . .     ",
"                                                                                                ",
"                                                                                                "};
