/* XPM */
static char *magick[] = {
/* columns rows colors chars-per-pixel */
"16 16 11 1",
"  c #000000",
". c #3c0000",
"X c #303030",
"o c #595959",
"O c #00ff00",
"+ c #008080",
"@ c #00bebe",
"# c #ff0000",
"$ c #ffbebe",
"% c #c0c0c0",
"& c None",
/* pixels */
"&&          &&&&",
"& @@@@@@@@@@ &&&",
"& @XXXXXXXX+ &&&",
"& @X O OO X+ &&&",
"& @X O  O X+ &&&",
"& @+++++++++ &&&",
"& @%%%%%%%%+ &&&",
"& @%o oo o.+ &&&",
"& @        + &&&",
"& @%%%%%%%%+ &&&",
"& @%o oo o + &&&",
"& @        + &&&",
"& @%%%%%%$$+ &&&",
"& @ o oo # + &&&",
"& XXXXXXXXXX &&&",
"&&          &&&&"
};
